<?xml version="1.0" encoding="UTF-8" standalone="no"?>
<!DOCTYPE svg PUBLIC "-//W3C//DTD SVG 1.1//EN"
 "http://www.w3.org/Graphics/SVG/1.1/DTD/svg11.dtd">
<!-- Generated by graphviz version 14.1.4 (20260321.0153)
 -->
<!-- Title: Scan Pages: 1 -->
<svg width="1142pt" height="161pt"
 viewBox="0.00 0.00 1142.00 161.00" xmlns="http://www.w3.org/2000/svg" xmlns:xlink="http://www.w3.org/1999/xlink">
<g id="graph0" class="graph" transform="scale(1 1) rotate(0) translate(4 156.62)">
<title>Scan</title>
<polygon fill="white" stroke="none" points="-4,4 -4,-156.62 1137.75,-156.62 1137.75,4 -4,4"/>
<!-- scanner -->
<g id="node1" class="node">
<title>scanner</title>
<polygon fill="lightgrey" stroke="black" points="594.46,-136.9 579.36,-152.62 549.14,-152.62 534.04,-136.9 549.14,-121.19 579.36,-121.19 594.46,-136.9"/>
<text xml:space="preserve" text-anchor="middle" x="564.25" y="-133.98" font-family="monospace" font-size="9.00">nmap</text>
</g>
<!-- srv0 -->
<g id="node2" class="node">
<title>srv0</title>
<g id="a_node2"><a xlink:title="192.168.1.10">
<polygon fill="lightgrey" stroke="black" points="289.75,-69.47 257.5,-85.19 193,-85.19 160.75,-69.47 193,-53.75 257.5,-53.75 289.75,-69.47"/>
<text xml:space="preserve" text-anchor="middle" x="225.25" y="-66.54" font-family="monospace" font-size="9.00">192.168.1.10</text>
</a>
</g>
</g>
<!-- scanner&#45;&gt;srv0 -->
<g id="edge5" class="edge">
<title>scanner&#45;&gt;srv0</title>
<path fill="none" stroke="black" d="M539.05,-131.04C482.12,-120.05 342.93,-93.18 270.59,-79.22"/>
</g>
<!-- srv1 -->
<g id="node7" class="node">
<title>srv1</title>
<g id="a_node7"><a xlink:title="192.168.1.20">
<polygon fill="lightgrey" stroke="black" points="628.75,-69.47 596.5,-85.19 532,-85.19 499.75,-69.47 532,-53.75 596.5,-53.75 628.75,-69.47"/>
<text xml:space="preserve" text-anchor="middle" x="564.25" y="-66.54" font-family="monospace" font-size="9.00">192.168.1.20</text>
</a>
</g>
</g>
<!-- scanner&#45;&gt;srv1 -->
<g id="edge10" class="edge">
<title>scanner&#45;&gt;srv1</title>
<path fill="none" stroke="black" d="M564.25,-120.73C564.25,-110.15 564.25,-96.11 564.25,-85.56"/>
</g>
<!-- srv2 -->
<g id="node12" class="node">
<title>srv2</title>
<g id="a_node12"><a xlink:title="192.168.1.30">
<polygon fill="lightgrey" stroke="black" points="966.75,-69.47 934.5,-85.19 870,-85.19 837.75,-69.47 870,-53.75 934.5,-53.75 966.75,-69.47"/>
<text xml:space="preserve" text-anchor="middle" x="902.25" y="-66.54" font-family="monospace" font-size="9.00">192.168.1.30</text>
</a>
</g>
</g>
<!-- scanner&#45;&gt;srv2 -->
<g id="edge15" class="edge">
<title>scanner&#45;&gt;srv2</title>
<path fill="none" stroke="black" d="M589.38,-131.04C646.06,-120.06 784.54,-93.26 856.76,-79.27"/>
</g>
<!-- srv0_port_tcp_22 -->
<g id="node3" class="node">
<title>srv0_port_tcp_22</title>
<g id="a_node3"><a xlink:title="tcp/22 (open)">
<polygon fill="none" stroke="none" points="74.5,-17.75 0,-17.75 0,0 74.5,0 74.5,-17.75"/>
<polyline fill="none" stroke="#228b22" points="0,0 74.5,0"/>
<text xml:space="preserve" text-anchor="middle" x="37.25" y="-6.15" font-family="monospace" font-size="8.00">tcp/22 (open)</text>
</a>
</g>
</g>
<!-- srv0&#45;&gt;srv0_port_tcp_22 -->
<g id="edge1" class="edge">
<title>srv0&#45;&gt;srv0_port_tcp_22</title>
<path fill="none" stroke="black" d="M186.75,-56.47C150.12,-45.05 95.97,-28.17 63.88,-18.17"/>
</g>
<!-- srv0_port_tcp_80 -->
<g id="node4" class="node">
<title>srv0_port_tcp_80</title>
<g id="a_node4"><a xlink:title="tcp/80 (open)">
<polygon fill="none" stroke="none" points="167.5,-17.75 93,-17.75 93,0 167.5,0 167.5,-17.75"/>
<polyline fill="none" stroke="#228b22" points="93,0 167.5,0"/>
<text xml:space="preserve" text-anchor="middle" x="130.25" y="-6.15" font-family="monospace" font-size="8.00">tcp/80 (open)</text>
</a>
</g>
</g>
<!-- srv0&#45;&gt;srv0_port_tcp_80 -->
<g id="edge2" class="edge">
<title>srv0&#45;&gt;srv0_port_tcp_80</title>
<path fill="none" stroke="black" d="M200.79,-53.38C182.64,-42.19 158.59,-27.35 143.77,-18.22"/>
</g>
<!-- srv0_port_tcp_443 -->
<g id="node5" class="node">
<title>srv0_port_tcp_443</title>
<g id="a_node5"><a xlink:title="tcp/443 (open)">
<polygon fill="none" stroke="none" points="264.75,-17.75 185.75,-17.75 185.75,0 264.75,0 264.75,-17.75"/>
<polyline fill="none" stroke="#228b22" points="185.75,0 264.75,0"/>
<text xml:space="preserve" text-anchor="middle" x="225.25" y="-6.15" font-family="monospace" font-size="8.00">tcp/443 (open)</text>
</a>
</g>
</g>
<!-- srv0&#45;&gt;srv0_port_tcp_443 -->
<g id="edge3" class="edge">
<title>srv0&#45;&gt;srv0_port_tcp_443</title>
<path fill="none" stroke="black" d="M225.25,-53.38C225.25,-42.12 225.25,-27.17 225.25,-18.05"/>
</g>
<!-- srv0_port_tcp_3306 -->
<g id="node6" class="node">
<title>srv0_port_tcp_3306</title>
<g id="a_node6"><a xlink:title="tcp/3306 (open)">
<polygon fill="none" stroke="none" points="366,-17.75 282.5,-17.75 282.5,0 366,0 366,-17.75"/>
<polyline fill="none" stroke="#228b22" points="282.5,0 366,0"/>
<text xml:space="preserve" text-anchor="middle" x="324.25" y="-6.15" font-family="monospace" font-size="8.00">tcp/3306 (open)</text>
</a>
</g>
</g>
<!-- srv0&#45;&gt;srv0_port_tcp_3306 -->
<g id="edge4" class="edge">
<title>srv0&#45;&gt;srv0_port_tcp_3306</title>
<path fill="none" stroke="black" d="M250.74,-53.38C269.65,-42.19 294.72,-27.35 310.16,-18.22"/>
</g>
<!-- srv1_port_tcp_53 -->
<g id="node8" class="node">
<title>srv1_port_tcp_53</title>
<g id="a_node8"><a xlink:title="tcp/53 (open)">
<polygon fill="none" stroke="none" points="458.5,-17.75 384,-17.75 384,0 458.5,0 458.5,-17.75"/>
<polyline fill="none" stroke="#228b22" points="384,0 458.5,0"/>
<text xml:space="preserve" text-anchor="middle" x="421.25" y="-6.15" font-family="monospace" font-size="8.00">tcp/53 (open)</text>
</a>
</g>
</g>
<!-- srv1&#45;&gt;srv1_port_tcp_53 -->
<g id="edge6" class="edge">
<title>srv1&#45;&gt;srv1_port_tcp_53</title>
<path fill="none" stroke="black" d="M530,-54.43C502.4,-43.13 464.53,-27.61 441.54,-18.19"/>
</g>
<!-- srv1_port_tcp_135 -->
<g id="node9" class="node">
<title>srv1_port_tcp_135</title>
<g id="a_node9"><a xlink:title="tcp/135 (open)">
<polygon fill="none" stroke="none" points="555.75,-17.75 476.75,-17.75 476.75,0 555.75,0 555.75,-17.75"/>
<polyline fill="none" stroke="#228b22" points="476.75,0 555.75,0"/>
<text xml:space="preserve" text-anchor="middle" x="516.25" y="-6.15" font-family="monospace" font-size="8.00">tcp/135 (open)</text>
</a>
</g>
</g>
<!-- srv1&#45;&gt;srv1_port_tcp_135 -->
<g id="edge7" class="edge">
<title>srv1&#45;&gt;srv1_port_tcp_135</title>
<path fill="none" stroke="black" d="M551.89,-53.38C542.67,-42.12 530.42,-27.17 522.95,-18.05"/>
</g>
<!-- srv1_port_tcp_445 -->
<g id="node10" class="node">
<title>srv1_port_tcp_445</title>
<g id="a_node10"><a xlink:title="tcp/445 (open)">
<polygon fill="none" stroke="none" points="652.75,-17.75 573.75,-17.75 573.75,0 652.75,0 652.75,-17.75"/>
<polyline fill="none" stroke="#228b22" points="573.75,0 652.75,0"/>
<text xml:space="preserve" text-anchor="middle" x="613.25" y="-6.15" font-family="monospace" font-size="8.00">tcp/445 (open)</text>
</a>
</g>
</g>
<!-- srv1&#45;&gt;srv1_port_tcp_445 -->
<g id="edge8" class="edge">
<title>srv1&#45;&gt;srv1_port_tcp_445</title>
<path fill="none" stroke="black" d="M576.87,-53.38C586.28,-42.12 598.79,-27.17 606.41,-18.05"/>
</g>
<!-- srv1_port_tcp_3389 -->
<g id="node11" class="node">
<title>srv1_port_tcp_3389</title>
<g id="a_node11"><a xlink:title="tcp/3389 (open)">
<polygon fill="none" stroke="none" points="754,-17.75 670.5,-17.75 670.5,0 754,0 754,-17.75"/>
<polyline fill="none" stroke="#228b22" points="670.5,0 754,0"/>
<text xml:space="preserve" text-anchor="middle" x="712.25" y="-6.15" font-family="monospace" font-size="8.00">tcp/3389 (open)</text>
</a>
</g>
</g>
<!-- srv1&#45;&gt;srv1_port_tcp_3389 -->
<g id="edge9" class="edge">
<title>srv1&#45;&gt;srv1_port_tcp_3389</title>
<path fill="none" stroke="black" d="M599.32,-54.58C627.87,-43.28 667.23,-27.7 691.15,-18.23"/>
</g>
<!-- srv2_port_tcp_23 -->
<g id="node13" class="node">
<title>srv2_port_tcp_23</title>
<g id="a_node13"><a xlink:title="tcp/23 (open)">
<polygon fill="none" stroke="none" points="846.5,-17.75 772,-17.75 772,0 846.5,0 846.5,-17.75"/>
<polyline fill="none" stroke="#228b22" points="772,0 846.5,0"/>
<text xml:space="preserve" text-anchor="middle" x="809.25" y="-6.15" font-family="monospace" font-size="8.00">tcp/23 (open)</text>
</a>
</g>
</g>
<!-- srv2&#45;&gt;srv2_port_tcp_23 -->
<g id="edge11" class="edge">
<title>srv2&#45;&gt;srv2_port_tcp_23</title>
<path fill="none" stroke="black" d="M878.3,-53.38C860.54,-42.19 836.99,-27.35 822.49,-18.22"/>
</g>
<!-- srv2_port_tcp_80 -->
<g id="node14" class="node">
<title>srv2_port_tcp_80</title>
<g id="a_node14"><a xlink:title="tcp/80 (open)">
<polygon fill="none" stroke="none" points="939.5,-17.75 865,-17.75 865,0 939.5,0 939.5,-17.75"/>
<polyline fill="none" stroke="#228b22" points="865,0 939.5,0"/>
<text xml:space="preserve" text-anchor="middle" x="902.25" y="-6.15" font-family="monospace" font-size="8.00">tcp/80 (open)</text>
</a>
</g>
</g>
<!-- srv2&#45;&gt;srv2_port_tcp_80 -->
<g id="edge12" class="edge">
<title>srv2&#45;&gt;srv2_port_tcp_80</title>
<path fill="none" stroke="black" d="M902.25,-53.38C902.25,-42.12 902.25,-27.17 902.25,-18.05"/>
</g>
<!-- srv2_port_tcp_443 -->
<g id="node15" class="node">
<title>srv2_port_tcp_443</title>
<g id="a_node15"><a xlink:title="tcp/443 (open)">
<polygon fill="none" stroke="none" points="1036.75,-17.75 957.75,-17.75 957.75,0 1036.75,0 1036.75,-17.75"/>
<polyline fill="none" stroke="#228b22" points="957.75,0 1036.75,0"/>
<text xml:space="preserve" text-anchor="middle" x="997.25" y="-6.15" font-family="monospace" font-size="8.00">tcp/443 (open)</text>
</a>
</g>
</g>
<!-- srv2&#45;&gt;srv2_port_tcp_443 -->
<g id="edge13" class="edge">
<title>srv2&#45;&gt;srv2_port_tcp_443</title>
<path fill="none" stroke="black" d="M926.71,-53.38C944.86,-42.19 968.91,-27.35 983.73,-18.22"/>
</g>
<!-- srv2_port_tcp_161 -->
<g id="node16" class="node">
<title>srv2_port_tcp_161</title>
<g id="a_node16"><a xlink:title="tcp/161 (open)">
<polygon fill="none" stroke="none" points="1133.75,-17.75 1054.75,-17.75 1054.75,0 1133.75,0 1133.75,-17.75"/>
<polyline fill="none" stroke="#228b22" points="1054.75,0 1133.75,0"/>
<text xml:space="preserve" text-anchor="middle" x="1094.25" y="-6.15" font-family="monospace" font-size="8.00">tcp/161 (open)</text>
</a>
</g>
</g>
<!-- srv2&#45;&gt;srv2_port_tcp_161 -->
<g id="edge14" class="edge">
<title>srv2&#45;&gt;srv2_port_tcp_161</title>
<path fill="none" stroke="black" d="M941.1,-56.61C978.47,-45.21 1034,-28.26 1066.92,-18.22"/>
</g>
</g>
</svg>
